<svg width="266" height="24" viewBox="0 0 266 24" fill="none" xmlns="http://www.w3.org/2000/svg">
    <path d="M232.012 17.4605H254.868C253.027 16.6581 251.523 15.1871 250.737 13.2704H249.233L247.437 6.78459C247.369 6.51714 247.1 6.31654 246.831 6.31654H243.777C243.351 6.31654 243.059 6.71773 243.171 7.09662L244.787 13.2481H240.701L238.905 6.7623C238.838 6.49485 238.568 6.29426 238.299 6.29426H235.245C234.819 6.29426 234.527 6.69544 234.639 7.07434L236.256 13.2258H230.89L229.094 6.74002C229.026 6.47256 228.757 6.27197 228.487 6.27197H225.434C225.007 6.27197 224.715 6.67315 224.828 7.05205L229.004 23.0324C231.339 22.8987 232.955 20.6699 232.349 18.4188L232.012 17.4605Z" fill="#FED593"/>
    <path d="M129.609 17.4606L128.464 13.2705L126.668 6.7847C126.6 6.51724 126.331 6.31665 126.061 6.31665H122.177L126.555 23.0771C128.89 22.9434 130.507 20.7146 129.901 18.4635L129.609 17.4606Z" fill="#FED593"/>
    <path d="M88.1846 17.4606L87.0396 13.2705L85.2434 6.7847C85.1761 6.51724 84.9066 6.31665 84.6372 6.31665H81.5837C81.1571 6.31665 80.8653 6.71783 80.9775 7.09673L85.1536 23.0771C87.4886 22.9434 89.1052 20.7146 88.499 18.4635L88.1846 17.4606Z" fill="#FED593"/>
    <path d="M263.378 6.33894H260.324C259.898 6.33894 259.606 6.74012 259.718 7.11901L261.312 13.2259H255.812L254.038 6.7847C253.971 6.51724 253.701 6.31665 253.432 6.31665H250.333C249.907 6.31665 249.615 6.71783 249.727 7.09673L251.029 12.1338C251.838 15.2541 254.689 17.4383 257.945 17.4383H262.166C264.568 17.4383 266.297 15.1872 265.668 12.8916L263.984 6.7847C263.917 6.51724 263.647 6.33894 263.378 6.33894Z" fill="#FED593"/>
    <path d="M102.756 6.33885H98.8719L100.668 13.2258H92.4282L89.1726 1.41323C89.1053 1.14578 88.8358 0.94519 88.5664 0.94519H85.5129C85.0863 0.94519 84.7945 1.34637 84.9067 1.74755L87.7132 12.156C88.5215 15.2763 91.3729 17.4605 94.6285 17.4605H101.589C103.991 17.4605 105.72 15.2094 105.091 12.9138L103.407 6.80689C103.295 6.51715 103.048 6.33885 102.756 6.33885Z" fill="#FED593"/>
    <path d="M192.834 12.9138L191.15 6.80691C191.082 6.53946 190.813 6.33887 190.543 6.33887H187.49C187.063 6.33887 186.771 6.74005 186.884 7.11894L188.478 13.2258H173.704C173.278 13.2258 172.986 13.6047 173.098 14.0059L173.862 16.9702C173.929 17.2599 174.198 17.4382 174.468 17.4382H189.353C191.733 17.4605 193.462 15.2094 192.834 12.9138Z" fill="#FED593"/>
    <path d="M225.164 12.9138L223.481 6.80689C223.413 6.53944 223.144 6.33885 222.874 6.33885H219.821C219.394 6.33885 219.102 6.74003 219.215 7.11892L220.809 13.2258H215.263C215.241 13.1144 215.218 13.0252 215.196 12.9138L213.512 6.80689C213.445 6.53944 213.175 6.33885 212.906 6.33885H210.818H209.021H206.462C204.06 6.33885 202.331 8.58992 202.959 10.8856L203.611 13.2258H202.825H198.649L195.393 1.41323C195.326 1.14578 195.056 0.94519 194.787 0.94519H191.733C191.307 0.94519 191.015 1.34637 191.127 1.74755L193.934 12.156C194.742 15.2763 197.593 17.4605 200.849 17.4605H202.847H211.716H221.707C224.064 17.4605 225.793 15.2094 225.164 12.9138ZM207.989 13.2258L207.293 10.5735H210.077L210.773 13.2258H207.989Z" fill="#FED593"/>
    <path d="M123.187 18.508L122.896 17.4828L121.75 13.2927L119.954 6.80691C119.887 6.53946 119.618 6.33887 119.348 6.33887H117.193H115.464H112.815C110.412 6.33887 108.683 8.58994 109.312 10.8856L109.963 13.2258V13.2481L109.986 13.3595L111.041 16.9925C111.131 17.2599 111.378 17.4382 111.647 17.4382H118.338L119.82 23.0771C122.2 22.9879 123.816 20.7368 123.187 18.508ZM114.296 12.7578L113.937 11.3536C113.825 10.9525 114.139 10.5736 114.543 10.5736H116.093C116.384 10.5736 116.631 10.7742 116.699 11.0416L117.058 12.4457C117.17 12.8469 116.856 13.2258 116.452 13.2258H114.903C114.611 13.2258 114.364 13.0475 114.296 12.7578Z" fill="#FED593"/>
    <path d="M259.157 0.878296C258.438 0.878296 257.81 1.25719 257.473 1.83668C257.383 1.99269 257.136 1.99269 257.046 1.83668C256.71 1.25719 256.081 0.878296 255.363 0.878296C254.307 0.878296 253.432 1.72523 253.387 2.77276C253.364 3.88715 254.24 4.77867 255.363 4.77867C256.081 4.77867 256.71 4.39978 257.069 3.82029C257.159 3.66428 257.406 3.66428 257.495 3.82029C257.832 4.39978 258.461 4.77867 259.202 4.77867C260.302 4.77867 261.2 3.86487 261.178 2.77276C261.088 1.72523 260.19 0.878296 259.157 0.878296Z" fill="#FED593"/>
    <path d="M223.324 18.0176C222.605 18.0176 221.976 18.3965 221.64 18.976C221.55 19.132 221.303 19.132 221.213 18.976C220.876 18.3965 220.248 18.0176 219.529 18.0176C218.474 18.0176 217.598 18.8645 217.553 19.912C217.531 21.0264 218.407 21.918 219.529 21.918C220.248 21.918 220.876 21.5391 221.236 20.9596C221.325 20.8036 221.572 20.8036 221.662 20.9596C221.999 21.5391 222.628 21.918 223.368 21.918C224.469 21.918 225.367 21.0042 225.344 19.912C225.277 18.8645 224.379 18.0176 223.324 18.0176Z" fill="#FED593"/>
    <path d="M184.953 6.33887C184.234 6.33887 183.606 6.71777 183.269 7.29725C183.179 7.45327 182.932 7.45327 182.842 7.29725C182.505 6.71777 181.877 6.33887 181.158 6.33887C180.103 6.33887 179.227 7.18581 179.183 8.23334C179.16 9.34773 180.036 10.2392 181.158 10.2392C181.877 10.2392 182.505 9.86036 182.865 9.28087C182.955 9.12486 183.201 9.12486 183.291 9.28087C183.628 9.86036 184.257 10.2392 184.998 10.2392C186.098 10.2392 186.996 9.32544 186.973 8.23334C186.884 7.18581 185.986 6.33887 184.953 6.33887Z" fill="#FED593"/>
    <path d="M248.47 0.878296C247.751 0.878296 247.123 1.25719 246.764 1.83668C246.674 1.99269 246.427 1.99269 246.337 1.83668C246 1.25719 245.371 0.878296 244.653 0.878296C243.935 0.878296 243.328 1.25719 242.969 1.81439C242.879 1.9704 242.655 1.9704 242.543 1.81439C242.183 1.25719 241.555 0.878296 240.836 0.878296C239.803 0.900584 238.928 1.74752 238.905 2.77276C238.883 3.88715 239.759 4.77867 240.881 4.77867C241.6 4.77867 242.206 4.39978 242.565 3.84258C242.655 3.68657 242.879 3.68657 242.992 3.84258C243.328 4.39978 243.957 4.77867 244.675 4.77867C245.394 4.77867 246.023 4.39978 246.359 3.82029C246.449 3.66428 246.696 3.66428 246.786 3.82029C247.123 4.39978 247.751 4.77867 248.47 4.77867C249.57 4.77867 250.468 3.86487 250.446 2.77276C250.378 1.74752 249.503 0.878296 248.47 0.878296Z" fill="#FED593"/>
    <path d="M102.037 18.5081C101.319 18.5081 100.69 18.8869 100.331 19.4664C100.241 19.6224 99.9943 19.6224 99.9045 19.4664C99.5677 18.8869 98.939 18.5081 98.2206 18.5081C97.5021 18.5081 96.8959 18.887 96.5367 19.4442C96.4468 19.6002 96.2223 19.6002 96.1101 19.4442C95.7508 18.887 95.1222 18.5081 94.4037 18.5081C93.3709 18.5303 92.4953 19.3773 92.4728 20.4025C92.4504 21.5169 93.326 22.4084 94.4486 22.4084C95.1671 22.4084 95.7733 22.0295 96.1325 21.4723C96.2223 21.3163 96.4468 21.3163 96.5591 21.4723C96.8959 22.0295 97.5245 22.4084 98.243 22.4084C98.9615 22.4084 99.5901 22.0295 99.9269 21.4501C100.017 21.294 100.264 21.294 100.353 21.4501C100.69 22.0295 101.319 22.4084 102.037 22.4084C103.138 22.4084 104.036 21.4946 104.013 20.4025C103.968 19.355 103.07 18.5081 102.037 18.5081Z" fill="#FED593"/>
    <path d="M207.315 4.48897C208.27 4.48897 209.044 3.72062 209.044 2.7728C209.044 1.82499 208.27 1.05664 207.315 1.05664C206.36 1.05664 205.586 1.82499 205.586 2.7728C205.586 3.72062 206.36 4.48897 207.315 4.48897Z" fill="#FED593"/>
    <path d="M160.57 4.48897C161.525 4.48897 162.299 3.72062 162.299 2.7728C162.299 1.82499 161.525 1.05664 160.57 1.05664C159.615 1.05664 158.841 1.82499 158.841 2.7728C158.841 3.72062 159.615 4.48897 160.57 4.48897Z" fill="#FED593"/>
    <path d="M168.765 12.9138L167.081 6.80691C167.014 6.53946 166.744 6.33887 166.475 6.33887H164.971H162.591H160.525C158.123 6.33887 156.147 8.27791 156.147 10.685V10.841H163.736L164.364 13.2481H154.777L153.004 6.80691C152.936 6.53946 152.667 6.33887 152.397 6.33887H150.646H148.536H146.291C143.888 6.33887 142.159 8.58994 142.788 10.8856L144.539 17.0148C144.607 17.2822 144.876 17.4828 145.145 17.4828H151.432L152.914 23.1216C155.249 22.9879 156.865 20.7591 156.259 18.508L155.967 17.4828H165.262C167.665 17.4605 169.394 15.2094 168.765 12.9138ZM147.727 12.7578L147.368 11.3536C147.256 10.9525 147.57 10.5736 147.974 10.5736H149.142C149.434 10.5736 149.681 10.7742 149.748 11.0416L150.107 12.4457C150.22 12.8469 149.905 13.2258 149.501 13.2258H148.334C148.064 13.2258 147.795 13.0475 147.727 12.7578Z" fill="#FED593"/>
    <path d="M141.912 12.9138L140.228 6.80691C140.161 6.53946 139.892 6.33887 139.622 6.33887H138.118H135.738H133.695C131.293 6.33887 129.317 8.27791 129.317 10.685V10.841H136.906L137.534 13.2481H130.484C130.058 13.2481 129.766 13.6493 129.878 14.0505L130.754 17.0147C130.844 17.2822 131.09 17.4605 131.36 17.4605H138.41C140.79 17.4605 142.541 15.2094 141.912 12.9138Z" fill="#FED593"/>
    <path d="M80.0121 12.9139L78.3282 6.80699C78.2608 6.53953 77.9914 6.33894 77.722 6.33894H74.6685C74.2419 6.33894 73.95 6.74012 74.0623 7.11901L75.6564 13.2259H71.8171C71.7946 13.1144 71.7722 13.0253 71.7497 12.9139L70.0658 6.80699C69.9985 6.53953 69.729 6.33894 69.4596 6.33894H66.4061C65.9796 6.33894 65.6877 6.74012 65.7999 7.11901L67.394 13.2259H64.6773H63.218C63.1955 13.1144 63.173 13.0253 63.1506 12.9139L61.4667 6.80699C61.3993 6.53953 61.1299 6.33894 60.8605 6.33894H57.807C57.3804 6.33894 57.0885 6.74012 57.2008 7.11901L58.7949 13.2259H58.1438H54.3269L53.7207 11.1754C52.8676 8.30027 50.1958 6.31665 47.1872 6.31665H45.1665H42.5396H41.6191C41.1925 6.31665 40.9006 6.71783 41.0129 7.09672L42.607 13.2036H4.663C4.52829 13.2036 4.37113 13.2482 4.25887 13.3373L0.442019 16.3016C-0.029474 16.6805 0.239951 17.4383 0.846156 17.4383H43.4602C45.8625 17.4383 47.5913 15.1872 46.9627 12.8916L46.3565 10.6628H47.2096C48.1077 10.6628 48.916 11.2423 49.163 12.1115L50.6224 16.9925C50.7122 17.26 50.9591 17.4383 51.2286 17.4383H59.3787H59.6032H65.8673H68.2472H76.532C78.9119 17.4606 80.6632 15.2095 80.0121 12.9139Z" fill="#FED593"/>
</svg>
