<svg xmlns="http://www.w3.org/2000/svg" width="18" height="18" viewBox="0 0 18 18">
    <g fill="#000" fill-rule="nonzero" stroke="#000" stroke-width=".3">
        <path d="M15.314 1H2.686C1.755 1 1 1.758 1 2.686v12.628C1 16.245 1.758 17 2.686 17h12.628c.931 0 1.686-.758 1.686-1.686V2.686A1.69 1.69 0 0 0 15.314 1zm.886 14.314a.888.888 0 0 1-.886.886H2.686a.888.888 0 0 1-.886-.886V2.686c0-.487.399-.886.886-.886h12.628c.487 0 .886.399.886.886v12.628z"/>
        <path d="M11.982 8.547h-2.63V5.916a.403.403 0 1 0-.806 0v2.631h-2.63a.402.402 0 1 0 0 .803h2.63v2.632a.403.403 0 1 0 .806 0V9.35h2.63c.222 0 .403-.18.403-.403a.4.4 0 0 0-.403-.4z"/>
    </g>
</svg>
