<svg width="64" height="56" viewBox="0 0 64 56" fill="none" xmlns="http://www.w3.org/2000/svg">
    <g clip-path="url(#clip0)">
        <path d="M46.8093 55.1146H17.0429C16.0573 55.1151 15.1299 54.7055 14.54 54.0098C13.9506 53.3141 13.7678 52.414 14.0472 51.5815L16.035 45.74C16.1416 45.4261 16.4301 45.1865 16.792 45.111C17.1538 45.0354 17.5333 45.1357 17.7885 45.3741C18.0432 45.6124 18.1346 45.9523 18.0279 46.2662L16.0412 52.1056C15.9493 52.3829 16.0112 52.683 16.2083 52.9142C16.4054 53.1458 16.7144 53.2817 17.0429 53.2813H46.8093C47.1383 53.2817 47.4477 53.1454 47.6448 52.9133C47.8419 52.6813 47.9029 52.3812 47.8096 52.103L45.8242 46.2662C45.659 45.7811 45.9713 45.2704 46.5217 45.1248C47.0721 44.9796 47.652 45.2549 47.8167 45.74L49.8035 51.5789C50.0839 52.4119 49.902 53.3124 49.3126 54.0085C48.7227 54.7047 47.7948 55.1146 46.8093 55.1146Z" fill="white"/>
        <path d="M16.8499 8.87041C17.2989 9.16414 17.9287 9.10539 18.2982 8.73529C18.7119 8.29176 19.1552 7.86962 19.6246 7.47141C20.0983 7.07571 20.6211 6.72281 21.1153 6.34389L19.856 4.88489C19.3009 5.30492 18.7214 5.69978 18.1901 6.14374C17.6602 6.59273 17.1608 7.06857 16.6937 7.56876C16.5095 7.75591 16.4214 8.00264 16.4509 8.24937C16.4804 8.49611 16.6252 8.72102 16.8499 8.87041Z" fill="white"/>
        <path d="M12.1652 24.8645H14.2453C14.0663 21.8231 14.2262 18.7729 14.7223 15.7588C14.7699 15.4676 14.8518 15.1856 14.929 14.9028C15.037 14.4185 14.7076 13.9423 14.1701 13.8055C13.8992 13.7379 13.6087 13.7732 13.3688 13.902C13.1283 14.0312 12.9598 14.2423 12.9036 14.4853C12.8189 14.7966 12.7303 15.1071 12.678 15.4214C12.1552 18.5467 11.9838 21.7098 12.1652 24.8645Z" fill="white"/>
        <path d="M16.2032 11.6267C16.3179 11.4186 16.3365 11.1794 16.2551 10.9596L16.1722 10.8005C16.1389 10.7464 16.0975 10.696 16.0494 10.6503C16.0113 10.6025 15.9651 10.5601 15.9132 10.5236C15.8585 10.4854 15.8009 10.4501 15.7404 10.4191C15.4981 10.3033 15.2129 10.2785 14.9496 10.3511C14.8168 10.3943 14.6944 10.4602 14.5901 10.5441C14.364 10.7032 14.2269 10.9407 14.2131 11.195C14.1993 11.4497 14.3107 11.6972 14.5182 11.8743C14.6135 11.9608 14.7273 12.0287 14.8529 12.0749C15.1077 12.1613 15.389 12.1643 15.6461 12.0837C15.8851 11.991 16.0813 11.8298 16.2032 11.6267Z" fill="white"/>
        <path d="M31.9261 49.6147C31.3119 49.6147 16.8132 49.5379 10.3358 42.8778C5.87709 38.2935 8.13905 34.0927 10.1349 30.3862C11.179 28.4472 12.165 26.6159 12.165 24.8645C12.165 24.3584 12.6306 23.948 13.2053 23.948C13.7794 23.948 14.2451 24.3584 14.2451 24.8645C14.2451 27.0289 13.1105 29.1349 12.0136 31.1721C10.1225 34.6856 8.33521 38.0043 11.9141 41.6848C17.7668 47.7025 31.7861 47.7814 31.9261 47.7814C32.0665 47.7814 46.0858 47.7025 51.9381 41.6848C55.5174 38.0043 53.7301 34.6856 51.8386 31.1721C50.7416 29.1349 49.6071 27.0289 49.6071 24.8645C49.6071 24.3727 49.6142 23.8595 49.6223 23.3278C49.6999 17.8695 49.7971 11.0767 42.7374 6.34426C42.2803 6.03752 42.1913 5.46265 42.5393 5.0594C42.8869 4.65657 43.5396 4.57852 43.9967 4.88526C51.8909 10.1766 51.7819 17.7918 51.7019 23.3509C51.6943 23.8746 51.6877 24.3802 51.6877 24.8645C51.6877 26.6159 52.6737 28.4472 53.7178 30.3862C55.7136 34.0927 57.9755 38.2935 53.5168 42.8778C47.0395 49.5379 32.5407 49.6147 31.9261 49.6147Z" fill="white"/>
        <path d="M39.2075 17.8245C38.7209 17.825 38.2986 17.5275 38.192 17.1087C38.0853 16.6903 38.3224 16.2623 38.7628 16.0789C40.9491 15.1801 42.3412 13.2411 42.3269 11.1145V3.78123C42.3255 2.76912 41.3947 1.94919 40.2468 1.94793H23.6056C22.4573 1.94919 21.527 2.76912 21.5255 3.78123V11.1145C21.5113 13.2411 22.9034 15.1797 25.0896 16.0789C25.4291 16.2166 25.6586 16.5044 25.6905 16.833C25.7224 17.1611 25.5524 17.4792 25.2444 17.6664C24.9363 17.8531 24.5383 17.8799 24.2017 17.7368C21.2842 16.5384 19.4264 13.9515 19.4455 11.1145V3.78123C19.4478 1.757 21.3089 0.116722 23.6056 0.114624H40.2468C42.5436 0.116722 44.4046 1.757 44.407 3.78123V11.1145C44.4261 13.9515 42.5678 16.5384 39.6503 17.7368C39.5122 17.7943 39.3608 17.8245 39.2075 17.8245Z" fill="white"/>
        <path d="M37.1263 20.2814H26.7258C25.0033 20.2798 23.6074 19.0494 23.6055 17.5313V13.8647C23.6102 10.3227 26.8672 7.45207 30.886 7.44788H32.9661C36.9849 7.45207 40.2419 10.3227 40.2467 13.8647V17.5313C40.2448 19.0494 38.8488 20.2798 37.1263 20.2814ZM30.886 9.28118C28.0151 9.28412 25.6889 11.3348 25.6856 13.8647V17.5313C25.686 18.0373 26.1517 18.4477 26.7258 18.4481H37.1263C37.7005 18.4477 38.1661 18.0373 38.1666 17.5313V13.8647C38.1628 11.3348 35.8365 9.28412 32.9661 9.28118H30.886Z" fill="white"/>
        <path d="M40.1621 32.3265C39.6751 32.3257 39.2537 32.0273 39.1476 31.6086L36.2928 20.2814H27.5597L24.7045 31.6086C24.5803 32.1029 24.0246 32.4146 23.4633 32.3047C22.9025 32.1952 22.5487 31.7055 22.6735 31.2112L25.7105 19.1661C25.8157 18.7465 26.238 18.4477 26.726 18.4481H37.1265C37.614 18.4477 38.0363 18.7465 38.142 19.1661L41.1791 31.2108C41.2472 31.4827 41.1719 31.7668 40.9744 31.9837C40.7768 32.2002 40.4783 32.3265 40.1626 32.3265H40.1621Z" fill="white"/>
        <path d="M18.8378 37.6985C17.448 37.6926 16.2273 36.8827 15.8364 35.707L15.0747 33.337C14.4919 31.5133 15.2337 29.5608 16.9453 28.4144L17.498 28.0473C18.0494 27.6877 18.7178 27.4946 19.4039 27.4955C19.7386 27.5014 20.0709 27.5547 20.387 27.6524C20.7555 27.7536 21.0959 27.921 21.3873 28.1442L23.315 29.56C23.854 29.9549 24.2963 30.4425 24.6153 30.9926C25.4304 32.3731 25.3804 34.0264 24.482 35.3662C24.3839 35.5328 24.2682 35.6914 24.1368 35.8391L23.6478 36.414C23.3788 36.7304 22.9104 36.8592 22.4852 36.7342C22.3438 36.9973 22.0696 37.1853 21.7453 37.2411L19.451 37.6431C19.2491 37.68 19.0439 37.6985 18.8378 37.6985ZM19.3548 29.328C19.1325 29.3351 18.9178 29.4014 18.7392 29.5185L18.1998 29.8772C17.1714 30.565 16.7248 31.7374 17.0748 32.8326L17.8356 35.2022C17.987 35.6583 18.5078 35.9378 19.0368 35.8467L21.3459 35.4418C21.5225 35.4103 21.7053 35.4208 21.8763 35.4716C21.9058 35.4162 21.9415 35.3637 21.9829 35.3146L22.4819 34.728C22.549 34.6541 22.6076 34.574 22.6566 34.4897C23.4517 33.3298 23.1651 31.8318 21.982 30.9661L20.048 29.5466C19.958 29.4761 19.8519 29.4236 19.7367 29.393C19.6143 29.3531 19.4853 29.3313 19.3548 29.328Z" fill="white"/>
        <path d="M20.0263 29.4295C19.5059 29.429 19.066 29.0896 18.997 28.6351C17.5825 19.3545 19.0241 18.6415 19.7168 18.2995C21.6184 17.3638 23.4657 17.4045 25.8971 18.438C25.968 18.4615 26.0366 18.4901 26.1023 18.5228C26.6174 18.7544 26.8303 19.3054 26.5827 19.7661C26.4675 19.9826 26.2575 20.1488 26.0014 20.2277C25.7452 20.3066 25.4634 20.2911 25.2206 20.1845L25.1482 20.1526C25.1187 20.1425 25.0235 20.1022 24.9949 20.0896C23.2071 19.3305 22.0621 19.2684 20.8033 19.8651C20.4948 20.3112 20.1758 22.6002 21.0585 28.3909C21.1347 28.8928 20.7352 29.3539 20.1658 29.4215C20.1196 29.4269 20.073 29.4295 20.0263 29.4295Z" fill="white"/>
        <path d="M45.0063 37.6972C44.803 37.6972 44.6007 37.6795 44.4016 37.6443L41.0823 37.0593C40.8318 37.0153 40.6081 36.8911 40.4548 36.7111L39.7059 35.8307C38.0428 33.8795 38.408 31.1218 40.5357 29.5595L42.4777 28.1341C43.5875 27.3154 45.191 27.2793 46.3465 28.0468L46.9012 28.4136C48.6175 29.5583 49.3636 31.5124 48.7813 33.3386L48.0148 35.7036C47.6239 36.8823 46.3994 37.6938 45.0063 37.6972ZM41.8807 35.3301L44.8101 35.8467C45.3405 35.9369 45.8618 35.6566 46.0137 35.1996L46.7802 32.8346C47.1307 31.7386 46.6831 30.5658 45.6528 29.8789L45.0987 29.513C44.7135 29.257 44.1793 29.2692 43.8094 29.5419L41.8674 30.9678C40.5909 31.9048 40.3724 33.5593 41.3698 34.7301L41.8807 35.3301Z" fill="white"/>
        <path d="M43.826 29.4294C43.7794 29.4294 43.7327 29.4269 43.6865 29.4215C43.1171 29.3539 42.7177 28.8928 42.7938 28.3909C43.6765 22.5998 43.3575 20.3112 43.0486 19.8651C41.7916 19.2684 40.6438 19.3318 38.8574 20.0896L38.7041 20.1526L38.1666 19.3645L37.7505 18.5228C37.8452 18.4779 37.9433 18.4384 38.0438 18.4044C40.389 17.4066 42.2368 17.3646 44.1341 18.2983C44.8287 18.6415 46.2708 19.3544 44.8563 28.6351C44.7868 29.09 44.3464 29.4294 43.826 29.4294Z" fill="white"/>
        <path d="M24.6539 39.5343C23.3785 39.5935 22.1368 39.1604 21.2527 38.3481C20.6637 37.7715 20.3933 36.9952 20.5133 36.2269C20.569 35.8371 20.9003 35.5219 21.3369 35.4431L21.983 35.3142C22.123 35.1497 22.322 35.0314 22.5477 34.9785C22.5396 34.8904 22.5458 34.8023 22.5662 34.7159C22.621 34.4771 22.7819 34.2673 23.0133 34.1339C23.2447 34.0004 23.527 33.9538 23.7969 34.005C24.115 34.0638 24.4183 34.1737 24.6906 34.3294C25.0777 34.3038 25.4571 34.2253 25.8161 34.0961C29.7539 32.7873 34.0974 32.7873 38.0348 34.0961C38.3947 34.2262 38.7756 34.3042 39.1631 34.3273C39.4355 34.1729 39.7373 34.0634 40.0539 34.005C40.4177 33.9383 40.7943 34.0474 41.0418 34.2916C41.2894 34.5358 41.3704 34.8778 41.2542 35.1892C41.138 35.5001 40.8424 35.733 40.4786 35.7997C40.381 35.8199 40.2901 35.8602 40.2134 35.9172C40.1106 35.9902 39.9925 36.0461 39.8664 36.0805C39.0075 36.237 38.1143 36.1451 37.3197 35.8178C33.8441 34.658 30.0072 34.658 26.5312 35.8178C25.7371 36.1451 24.8439 36.237 23.985 36.0805C23.935 36.0666 23.886 36.0494 23.8388 36.0293C23.8098 36.1694 23.7436 36.3016 23.6465 36.4153L23.397 36.7086C23.2442 36.8874 23.0223 37.0112 22.7729 37.0565L22.7424 37.0619C22.7595 37.0825 22.7776 37.1018 22.7976 37.1203C22.9304 37.2537 24.0121 38.2306 26.9202 37.2952C30.1443 36.2063 33.7118 36.2068 36.9359 37.2973C37.6549 37.5424 38.4157 37.6779 39.1865 37.6981C39.8668 37.7472 40.5396 37.5424 41.0409 37.1337C41.228 36.9491 41.3137 36.7011 41.2747 36.456C41.2028 35.9537 41.6065 35.4951 42.1764 35.4317C42.7463 35.3684 43.2667 35.7246 43.3386 36.2269C43.4571 37.004 43.1791 37.7879 42.5792 38.3674C41.6893 39.1655 40.4543 39.5893 39.1865 39.5314C38.1724 39.5112 37.1697 39.3379 36.2223 39.019C33.4609 38.0774 30.4005 38.0766 27.6386 39.0157C26.6859 39.3413 25.6756 39.5171 24.6539 39.5343Z" fill="white"/>
        <path d="M24.0576 43.8428C21.251 43.9024 18.5491 42.9029 16.6309 41.096C14.4589 39.1066 11.767 37.6157 8.7909 36.7538C8.23386 36.6305 7.89583 36.1324 8.03533 35.6414C8.1753 35.15 8.74043 34.8521 9.29795 34.9755C12.6459 35.9058 15.6739 37.5649 18.1016 39.7998C21.1762 42.5089 24.1938 42.1362 27.6912 41.7057C29.0924 41.5047 30.5078 41.3906 31.9271 41.3646C32.5017 41.3646 32.9674 41.775 32.9674 42.2814C32.9674 42.7875 32.5017 43.1979 31.9271 43.1979C30.6045 43.2252 29.2852 43.3334 27.9792 43.5214C26.6823 43.7086 25.3716 43.816 24.0576 43.8428Z" fill="white"/>
        <path d="M39.7955 43.8428C38.482 43.816 37.1717 43.7086 35.8748 43.5214C34.5684 43.333 33.2491 43.2252 31.926 43.1979C31.3519 43.1979 30.8862 42.7875 30.8862 42.2814C30.8862 41.775 31.3519 41.3646 31.926 41.3646C33.3458 41.3906 34.7612 41.5047 36.1624 41.7057C39.6589 42.1367 42.6774 42.5101 45.7521 39.7998C48.1797 37.5649 51.2077 35.9058 54.5557 34.9755C55.1127 34.8521 55.6778 35.15 55.8178 35.6414C55.9578 36.1324 55.6198 36.6305 55.0627 36.7538C52.0861 37.6157 49.3947 39.1066 47.2223 41.096C45.3045 42.9029 42.6026 43.9024 39.7955 43.8428Z" fill="white"/>
        <path d="M18.4368 42.1946C18.1616 42.1954 17.8969 42.0998 17.7017 41.9286C17.5065 41.7578 17.397 41.5249 17.3965 41.2823V41.2731C17.3965 41.1946 17.4079 41.1166 17.4303 41.0406C17.9754 39.1897 18.8948 37.4408 20.1441 35.8777C20.4978 35.4786 21.1515 35.4081 21.6043 35.7199C22.0566 36.0313 22.137 36.6074 21.7833 37.0065C20.7121 38.3664 19.9222 39.8825 19.4494 41.485C19.3385 41.8992 18.9195 42.1925 18.4368 42.1946Z" fill="white"/>
        <path d="M45.4159 42.1946C44.916 42.1959 44.4865 41.8833 44.3932 41.4506C43.9199 39.8607 43.1334 38.3564 42.0693 37.0065C41.7156 36.6074 41.7956 36.0313 42.2484 35.7195C42.7011 35.4077 43.3548 35.4786 43.7086 35.8777C44.9579 37.4408 45.8772 39.1897 46.4223 41.0407C46.5033 41.3159 46.4357 41.6088 46.239 41.8342C46.0424 42.0599 45.7387 42.1925 45.4159 42.1946Z" fill="white"/>
        <path d="M19.4446 29.4479C18.9676 29.4475 18.5524 29.1613 18.4372 28.7539C17.6092 25.8363 13.3819 25.7821 13.202 25.7813C12.6278 25.7805 12.1626 25.3697 12.1636 24.8632C12.1645 24.3571 12.6306 23.9472 13.2053 23.948C15.2844 23.948 19.476 24.8594 20.4544 28.3087C20.532 28.5827 20.4625 28.873 20.2649 29.0959C20.0678 29.3183 19.765 29.4483 19.4446 29.4479Z" fill="white"/>
        <path d="M44.4496 29.3292C44.3559 29.3292 44.2621 29.3178 44.1716 29.2956C43.6179 29.1609 43.2937 28.6561 43.4465 28.1681C44.7558 23.9958 50.4085 23.948 50.6475 23.948C51.2217 23.9472 51.6883 24.3571 51.6893 24.8632C51.6897 25.3697 51.2251 25.7805 50.6504 25.7813C50.4747 25.7821 46.3369 25.835 45.4514 28.6565C45.3266 29.0535 44.9172 29.3287 44.4496 29.3292Z" fill="white"/>
        <path d="M25.8731 11.5186C25.546 11.5178 25.2379 11.3818 25.0418 11.151C24.8452 10.9202 24.7837 10.6215 24.8747 10.3445C25.3289 9.10917 25.6017 7.82808 25.686 6.53188C25.675 6.10933 25.6341 5.68845 25.5641 5.27051C25.3622 3.84717 25.1113 2.07555 27.0305 0.383656C27.439 0.0362134 28.0874 0.0412488 28.4888 0.394986C28.8896 0.748303 28.8954 1.32024 28.5011 1.67985C27.3009 2.73813 27.438 3.70492 27.6275 5.04308C27.7094 5.53613 27.7556 6.03337 27.766 6.53188C27.678 8.0018 27.3775 9.45577 26.8719 10.8585C26.7419 11.2492 26.3354 11.5182 25.8731 11.5186Z" fill="white"/>
        <path d="M37.9792 11.5184C37.5174 11.518 37.1108 11.249 36.9808 10.8583C36.4752 9.45555 36.1748 8.00158 36.0867 6.53166C36.0972 6.03316 36.1429 5.53591 36.2248 5.04286C36.4147 3.7047 36.5518 2.73791 35.3511 1.67963C34.9536 1.32044 34.9578 0.746406 35.3602 0.39141C35.7629 0.036834 36.4142 0.0330574 36.8218 0.383437C38.7414 2.07533 38.4905 3.84695 38.2882 5.27029C38.2182 5.68823 38.1777 6.10911 38.1668 6.53166C38.2511 7.82786 38.5239 9.10937 38.9781 10.3447C39.069 10.6221 39.0076 10.9209 38.8109 11.1516C38.6148 11.3824 38.3068 11.5184 37.9792 11.5188V11.5184Z" fill="white"/>
    </g>
    <defs>
        <clipPath id="clip0">
            <rect x="0.687012" y="0.114624" width="62.4037" height="55" fill="white"/>
        </clipPath>
    </defs>
</svg>
