<svg width="63" height="56" viewBox="0 0 63 56" fill="none" xmlns="http://www.w3.org/2000/svg">
    <g>
        <g clip-path="url(#clip0)">
            <path d="M40.3602 30.82C40.1335 31.0197 40.0044 31.2968 40.0044 31.5792C40.0044 31.8627 40.1335 32.1386 40.3602 32.3384C40.588 32.539 40.9011 32.653 41.2215 32.653C41.5432 32.653 41.8563 32.539 42.0841 32.3384C42.3107 32.1386 42.4399 31.8616 42.4399 31.5792C42.4399 31.2968 42.3107 31.0208 42.0841 30.82C41.8575 30.6204 41.5432 30.5065 41.2215 30.5065C40.9011 30.5065 40.5868 30.6203 40.3602 30.82Z" fill="white"/>
            <path d="M61.9162 51.149L61.8394 51.0812L58.6217 39.1638C57.2454 34.0661 52.1317 30.5059 46.1863 30.5059H46.0954C45.4225 30.5059 44.8771 30.9867 44.8771 31.5797C44.8771 32.1726 45.4225 32.6535 46.0954 32.6535H46.1863C50.9984 32.6535 55.1372 35.5351 56.2512 39.6611L58.5524 48.1842L48.1762 39.0391C47.9478 38.8377 47.6378 38.7246 47.3147 38.7246H41.8907C41.7365 38.7246 41.5868 38.7513 41.4476 38.7993C38.43 37.2632 34.9904 36.4504 31.4855 36.4504C27.9733 36.4504 24.5426 37.2612 21.5217 38.7988C21.3829 38.7512 21.2339 38.7246 21.0803 38.7246H15.6563C15.3332 38.7246 15.0232 38.8377 14.7948 39.0391L4.41115 48.1908L6.69784 39.6725C7.80726 35.5398 11.9474 32.6535 16.7659 32.6535H26.1129C27.595 33.8043 29.4772 34.4346 31.4701 34.4346C33.6385 34.4346 35.6771 33.6903 37.2105 32.3389C37.4389 32.1375 37.5673 31.8644 37.5673 31.5797V26.0701C40.2263 24.602 42.1597 22.2043 42.7772 19.3974H43.7245C46.0087 19.3974 47.8669 17.7597 47.8669 15.7465V15.1674C47.8669 13.1543 46.0087 11.5165 43.7245 11.5165H42.9882V10.2773C42.9882 4.67969 37.8212 0.125854 31.4703 0.125854C25.1193 0.125854 19.9524 4.67969 19.9524 10.2773V11.5166H19.216C16.9319 11.5166 15.0737 13.1544 15.0737 15.1675V15.7466C15.0737 17.7598 16.9319 19.3975 19.216 19.3975H20.1634C20.7808 22.2044 22.7142 24.6021 25.3732 26.0703V30.506H16.7662C13.9002 30.506 11.0839 31.369 8.83602 32.9361C6.58819 34.5033 4.98681 36.72 4.32696 39.1781L1.13114 51.0817L1.05488 51.149C0.300481 51.8139 0.0767949 52.805 0.485059 53.6738C0.893446 54.5427 1.84667 55.104 2.91357 55.104H11.1626C11.5931 55.104 11.9918 54.9037 12.2111 54.577L16.2999 48.4873L16.6741 48.6993C17.0386 48.9058 17.435 49.0405 17.8407 49.1092C17.133 50.6279 16.7417 52.2893 16.7417 54.0302C16.7417 54.6231 17.2871 55.104 17.96 55.104C18.6329 55.104 19.1784 54.6231 19.1784 54.0302C19.1784 51.4255 20.2256 49.0325 21.9682 47.1606L27.1402 51.719C26.6762 52.394 26.4088 53.1851 26.4088 54.0302C26.4088 54.6231 26.9543 55.104 27.6272 55.104C28.3 55.104 28.8455 54.6231 28.8455 54.0302C28.8455 52.7473 30.0297 51.7035 31.4854 51.7035C32.941 51.7035 34.1253 52.7473 34.1253 54.0302C34.1253 54.6231 34.6707 55.104 35.3436 55.104C36.0165 55.104 36.5619 54.6231 36.5619 54.0302C36.5619 53.1851 36.2945 52.394 35.8306 51.719L41.0025 47.1607C42.7451 49.0326 43.7924 51.4256 43.7924 54.0303C43.7924 54.6232 44.3379 55.1041 45.0107 55.1041C45.6836 55.1041 46.2291 54.6232 46.2291 54.0303C46.2291 52.2894 45.8377 50.628 45.13 49.1093C45.5357 49.0406 45.9322 48.9059 46.2967 48.6994L46.6708 48.4874L50.7597 54.5772C50.979 54.9038 51.3776 55.1041 51.8082 55.1041H60.0572C61.1241 55.1041 62.0774 54.5427 62.4857 53.6739C62.8943 52.805 62.6706 51.814 61.9162 51.149ZM45.43 15.1675V15.7466C45.43 16.5756 44.6649 17.2499 43.7243 17.2499H42.9879V13.6642H43.7243C44.6649 13.6642 45.43 14.3387 45.43 15.1675ZM22.3888 10.2773C22.3888 5.86387 26.4627 2.27344 31.47 2.27344C36.4774 2.27344 40.5513 5.86398 40.5513 10.2773V11.5166H37.3518C36.7134 11.5166 36.1009 11.3667 35.5667 11.0857C36.2408 10.6563 36.8807 10.1763 37.4802 9.64791C37.956 9.2286 37.956 8.54867 37.4802 8.12925C37.0044 7.71004 36.233 7.71004 35.7572 8.12925C33.279 10.3136 29.9839 11.5165 26.479 11.5165H22.3889V10.2773H22.3888ZM17.5101 15.7466V15.1675C17.5101 14.3386 18.2752 13.6642 19.2158 13.6642H19.9521V17.2499H19.2158C18.2752 17.2499 17.5101 16.5756 17.5101 15.7466ZM22.3889 17.4638V13.6642H26.479C28.8914 13.6642 31.22 13.1836 33.324 12.2737C34.4232 13.172 35.8445 13.6642 37.3519 13.6642H40.5514V17.4617C40.5514 21.8751 36.4775 25.4655 31.4701 25.4655C26.4634 25.4656 22.3901 21.8761 22.3889 17.4638ZM31.47 27.6132C32.749 27.6132 33.9799 27.4282 35.1304 27.0875V31.1096C33.023 32.6767 29.9169 32.6767 27.8095 31.1096V27.0875C28.9601 27.4282 30.191 27.6132 31.47 27.6132ZM39.9886 40.5386L39.0004 42.0287C38.8603 42.24 38.7541 42.4626 38.6789 42.6907C36.5498 41.6373 34.096 41.0355 31.4855 41.0355C28.875 41.0355 26.4212 41.6373 24.2921 42.6907C24.2169 42.4626 24.1107 42.2402 23.9706 42.0288L22.9826 40.5391C25.5738 39.2683 28.4952 38.5981 31.4855 38.5981C34.4698 38.5981 37.3995 39.2689 39.9886 40.5386ZM10.4679 52.9564H2.91357C2.87848 52.9564 2.78528 52.9564 2.73618 52.8519C2.68708 52.7474 2.75299 52.6893 2.77785 52.6675L9.70275 46.5642L12.8797 49.3642L10.4679 52.9564ZM16.5542 46.0783C16.2759 45.9206 15.9369 45.8692 15.6146 45.9367C15.2926 46.0039 15.0154 46.1837 14.8469 46.4347L14.161 47.4563L11.426 45.0458L16.1611 40.8724H20.3815L21.8671 43.1127C22.0596 43.4029 22.0231 43.77 21.7763 44.0263L19.1651 46.7388C18.8743 47.0409 18.3699 47.1069 17.9918 46.893L16.5542 46.0783ZM28.8633 50.2005L23.6913 45.642C25.8152 44.1062 28.5303 43.1832 31.4856 43.1832C34.4409 43.1832 37.156 44.1062 39.2799 45.642L34.1078 50.2005C33.342 49.7916 32.4445 49.556 31.4856 49.556C30.5267 49.5559 29.6291 49.7916 28.8633 50.2005ZM46.4169 46.0782L44.9793 46.8928C44.6013 47.1071 44.0969 47.0408 43.8062 46.7387L41.1949 44.0262C40.9482 43.7699 40.9116 43.4027 41.1041 43.1125L42.5898 40.8723H46.8101L51.5453 45.0456L48.8102 47.4562L48.1243 46.4346C47.9558 46.1835 47.6786 46.0038 47.3566 45.9366C47.0344 45.8694 46.6953 45.9206 46.4169 46.0782ZM60.2348 52.852C60.1857 52.9565 60.0926 52.9565 60.0574 52.9565H52.5031L50.0913 49.3644L53.2683 46.5644L60.1932 52.6677C60.218 52.6894 60.2839 52.7475 60.2348 52.852Z" fill="white"/>
        </g>
    </g>
    <defs>
        <clipPath id="clip0">
            <rect x="0.283691" y="0.114624" width="62.4037" height="55" fill="white"/>
        </clipPath>
    </defs>
</svg>
