<svg xmlns="http://www.w3.org/2000/svg" width="56" height="56" viewBox="0 0 56 56">
    <g fill="none" fill-rule="evenodd">
        <path fill="#FF33B6" d="M42.25 25.25h-15l1 11h13z"/>
        <path stroke="#404040" stroke-linejoin="round" stroke-width="1.5" d="M28.25 44.25h13l2-24h-17z"/>
        <path fill="#FFF" stroke="#404040" stroke-linejoin="round" stroke-width="1.5" d="M34.25 44.25h-20a3 3 0 0 1-3-3v-2h26v2a3 3 0 0 1-3 3zM20.51 24.5h7.48a9.33 9.33 0 0 1 9.26 8.2v.8a1 1 0 0 1-1 1h-24a1 1 0 0 1-1-1v-.8a9.33 9.33 0 0 1 9.26-8.2z"/>
        <path fill="#FF33B6" d="M13.75 34.25h21a2.5 2.5 0 1 1 0 5h-21a2.5 2.5 0 1 1 0-5z"/>
        <path fill="#FFF" stroke="#404040" stroke-linejoin="round" d="M13.5 34.5h21a2.5 2.5 0 1 1 0 5h-21a2.5 2.5 0 1 1 0-5z"/>
        <path fill="#FF33B6" stroke="#404040" stroke-linejoin="round" d="M33 34.5l-3.702 4.442a2 2 0 0 1-2.838.238L21 34.5h12z"/>
        <path fill="#FFF" stroke="#404040" stroke-linejoin="round" d="M40 18h4.5v2.5H25V18h12m0 0h3"/>
        <g fill="#404040" transform="translate(16.25 26.25)">
            <rect width="1.5" height="1.5" y="4" rx=".75"/>
            <rect width="1.5" height="1.5" x="5" y="4" rx=".75"/>
            <rect width="1.5" height="1.5" x="8" y="1" rx=".75"/>
            <rect width="1.5" height="1.5" x="3" y="1" rx=".75"/>
            <rect width="1.5" height="1.5" x="10" y="4" rx=".75"/>
            <rect width="1.5" height="1.5" x="12" y="1" rx=".75"/>
            <rect width="1.5" height="1.5" x="15" y="4" rx=".75"/>
        </g>
        <path fill="#FFF" stroke="#404040" d="M33.5 10h2v8h-2z"/>
    </g>
</svg>
