<svg xmlns="http://www.w3.org/2000/svg" width="24" height="29" viewBox="0 0 24 29">
    <g fill="#FFF" fill-rule="nonzero">
        <path d="M16.739 28.651c-.88 0-1.663-.297-2.418-.58-.647-.247-1.257-.477-1.835-.477-.514 0-1.1.22-1.72.45-.75.277-1.6.595-2.522.595-1.517 0-2.876-.869-4.163-2.65-.054-.076-5.29-7.767-2.747-13.478 1.394-3.127 3.401-4.715 5.967-4.715 1.353 0 2.603.425 3.606.767.561.191 1.092.371 1.371.371.33 0 .86-.193 1.419-.4.931-.343 2.093-.771 3.425-.771 1.93 0 3.678.891 5.343 2.725a.607.607 0 0 1 .153.464.61.61 0 0 1-.244.424c-1.756 1.28-2.646 2.759-2.646 4.4 0 2.03 1.003 3.524 3.35 4.984.255.157.353.48.23.754-2.206 4.934-4.232 7.137-6.57 7.137zM12.335 7.453c-.144 0-.29-.01-.432-.026a.596.596 0 0 1-.526-.573C11.22 2.84 14.622.38 17.137.152a.606.606 0 0 1 .647.491c.277 1.546-.241 3.245-1.426 4.661-1.125 1.346-2.63 2.15-4.023 2.15z"/>
    </g>
</svg>
