<svg width="64" height="58" viewBox="0 0 64 58" fill="none" xmlns="http://www.w3.org/2000/svg">
    <g >
        <g clip-path="url(#clip0)">
            <path d="M62.6122 7.13147C62.6122 5.65838 61.2763 4.45959 59.6348 4.45959H58.2632L56.2782 0.897095H41.157L39.1721 4.45959H37.8005C36.1589 4.45959 34.8231 5.65838 34.8231 7.13147V9.80334H11.0038V14.2485L5.04898 15.3074V31.1783H1.0791V41.8658H7.03392V56.1158H14.9737V41.8658H34.8231V48.9908H42.7628V56.1158H50.7026V48.9908H62.6122V7.13147ZM42.3837 2.67834H55.0516L56.044 4.45959H41.3912L42.3837 2.67834ZM45.1586 40.0846L53.0984 32.9596H54.6724V40.0846H45.1586ZM42.3519 40.0846H39.2038L47.1436 32.9596H50.2917L42.3519 40.0846ZM36.3971 40.0846H29.2791L37.2189 32.9596H44.3369L36.3971 40.0846ZM12.9887 31.1783H11.0038V20.4908H12.9887V31.1783ZM18.5327 32.9596L10.5929 40.0846H7.4448L15.3846 32.9596H18.5327ZM21.3394 32.9596H28.4574L20.5176 40.0846H13.3996L21.3394 32.9596ZM31.2641 32.9596H34.4122L26.4724 40.0846H23.3243L31.2641 32.9596ZM24.8984 31.1783V22.2721H34.8231V31.1783H24.8984ZM12.9887 11.5846H34.8231V20.4908H22.9134V31.1783H18.9435V13.3658H15.9661L12.9887 13.8958V11.5846ZM7.03392 16.7671L16.0644 15.1471H16.9586V31.1783H14.9737V18.7096H9.01885V31.1783H7.03392V16.7671ZM3.06404 32.9596H5.04898H12.5778L4.6381 40.0846H3.06404V32.9596ZM12.9887 54.3346H9.01885V41.8658H12.9887V54.3346ZM36.808 47.2096V41.8658H42.7628V47.2096H36.808ZM44.7477 54.3346V41.8658H48.7176V54.3346H44.7477ZM60.6272 47.2096H50.7026V41.8658H56.6574V31.1783H36.808V7.13147C36.808 6.63984 37.2536 6.24084 37.8005 6.24084H59.6348C60.1816 6.24084 60.6272 6.63984 60.6272 7.13147V47.2096Z" fill="white"/>
            <path d="M38.7925 13.3658H58.6419V8.02209H38.7925V13.3658ZM46.7322 11.5846V9.80334H50.7021V11.5846H46.7322ZM56.6569 11.5846H52.687V9.80334H56.6569V11.5846ZM40.7774 9.80334H44.7473V11.5846H40.7774V9.80334Z" fill="white"/>
            <path d="M38.7925 20.4908H58.6419V15.1471H38.7925V20.4908ZM46.7322 18.7096V16.9283H50.7021V18.7096H46.7322ZM56.6569 18.7096H52.687V16.9283H56.6569V18.7096ZM40.7774 16.9283H44.7473V18.7096H40.7774V16.9283Z" fill="white"/>
            <path d="M38.7925 27.6158H58.6419V22.2721H38.7925V27.6158ZM46.7322 25.8346V24.0533H50.7021V25.8346H46.7322ZM56.6569 25.8346H52.687V24.0533H56.6569V25.8346ZM40.7774 24.0533H44.7473V25.8346H40.7774V24.0533Z" fill="white"/>
            <path d="M32.8381 13.3658H26.8833V18.7096H32.8381V13.3658ZM30.8532 16.9283H28.8682V15.1471H30.8532V16.9283Z" fill="white"/>
            <path d="M26.8833 24.0533V29.3971H32.8381V24.0533H26.8833ZM30.8532 27.6158H28.8682V25.8346H30.8532V27.6158Z" fill="white"/>
        </g>
    </g>
    <defs>
        <clipPath id="clip0">
            <rect x="0.0864258" y="0.00646973" width="63.518" height="57" fill="white"/>
        </clipPath>
    </defs>
</svg>
