<svg xmlns="http://www.w3.org/2000/svg" width="15" height="21" viewBox="0 0 15 21">
    <g fill="#000" fill-rule="nonzero">
        <path d="M13.27 6.192h-2.885c-.319 0-.577.286-.577.638 0 .352.258.638.577.638h2.884c.319 0 .577.285.577.637v10.797c0 .352-.258.638-.577.638H1.731c-.319 0-.577-.286-.577-.638V8.105c0-.352.258-.637.577-.637h2.884c.319 0 .577-.286.577-.638 0-.352-.258-.638-.577-.638H1.731C.775 6.192 0 7.05 0 8.105v10.797c0 1.057.775 1.913 1.73 1.913h11.54c.955 0 1.73-.856 1.73-1.913V8.105c0-1.056-.775-1.913-1.73-1.913z"/>
        <path d="M10.8 3.054L7.908.169a.579.579 0 0 0-.818 0l-2.89 2.885a.576.576 0 0 0 .014.815c.224.216.58.216.803 0l1.904-1.9v9.57a.578.578 0 0 0 1.156 0v-9.57l1.904 1.9a.576.576 0 1 0 .817-.816z"/>
    </g>
</svg>
